# xmcd
#
# Track frame offsets:
#	150
#	12154
#	22880
#	37320
#	47456
#	60543
#	78891
#	87312
#	98220
#	109700
#	120283
#	129160
#	144139
#	153712
#	166881
#	176966
#	190505
#	202639
#	215136
#	226789
#	236861
#	251157
#	262571
#	273335
#	284985
#	297422
#	308525
#	320162
#	333020
#
# Disc length: 4572 seconds
#
# Revision: 1
# Processed by: cddbd v1.5.2PL0 Copyright (c) Steve Scherf et al.
# Submitted via: audiograbber 1.83.01
#
DISCID=8c11da1d
DTITLE=Slim Whitman - The Collection [Disc 2]
DYEAR=2005
DGENRE=Country
TTITLE0=Love Song Of The Waterfall
TTITLE1=Serenade
TTITLE2=Goodbye Little Darlin' Goodbye
TTITLE3=Do What You Do, Do Well
TTITLE4=Cool Water (with rare orchestral overdub)
TTITLE5=Take Good Care Of Her
TTITLE6=When It's Harvest Time Sweet Angeline
TTITLE7=Maria Elena
TTITLE8=I'll Take You Home Again Kathleen
TTITLE9=Take Me In Your Arms And Hold Me
TTITLE10=There's A New Moon Over My Shoulder
TTITLE11=Indian Love Call
TTITLE12=Snowbird
TTITLE13=Harbour Lights
TTITLE14=When My Blue Moon Turns To Gold Again
TTITLE15=Vaya Con Dios
TTITLE16=What A Friend We Have In Jesus
TTITLE17=Hello Love
TTITLE18=Faded Love
TTITLE19=Be Honest With Me
TTITLE20=Down The River Of Golden Dreams
TTITLE21=White Silver Sands
TTITLE22=Tumbling Tumbleweeds
TTITLE23=Happy Anniversary
TTITLE24=Forty Shades Of Green
TTITLE25=Little Arrows
TTITLE26=I'd Trade All Of My Tomorrows
TTITLE27=Whispering Hope
TTITLE28=Only You And You Alone
EXTD=
EXTT0=
EXTT1=
EXTT2=
EXTT3=
EXTT4=
EXTT5=
EXTT6=
EXTT7=
EXTT8=
EXTT9=
EXTT10=
EXTT11=
EXTT12=
EXTT13=
EXTT14=
EXTT15=
EXTT16=
EXTT17=
EXTT18=
EXTT19=
EXTT20=
EXTT21=
EXTT22=
EXTT23=
EXTT24=
EXTT25=
EXTT26=
EXTT27=
EXTT28=
PLAYORDER=
